<?xml version="1.0" standalone="no"?>
<!DOCTYPE svg PUBLIC "-//W3C//DTD SVG 20010904//EN"
 "http://www.w3.org/TR/2001/REC-SVG-20010904/DTD/svg10.dtd">
<svg version="1.0" xmlns="http://www.w3.org/2000/svg"
 width="16.000000pt" height="16.000000pt" viewBox="0 0 16.000000 16.000000"
 preserveAspectRatio="xMidYMid meet">
<metadata>
Created by potrace 1.11, written by Peter Selinger 2001-2013
</metadata>
<g transform="translate(0.000000,16.000000) scale(0.001351,-0.001351)"
fill="#000000" stroke="none">
<path d="M3365 10355 l-2550 -1474 -3 -2960 c-1 -1629 1 -2961 5 -2961 5 0 61
9 126 19 l118 20 82 69 c45 39 435 374 866 745 l783 676 414 227 c228 125 414
230 414 234 0 4 -28 42 -62 86 -35 44 -73 92 -84 107 l-22 27 -758 -315 c-416
-173 -759 -314 -760 -312 -2 2 173 447 389 990 l393 987 933 552 934 551 824
-137 823 -138 1198 422 c658 232 1199 424 1200 425 2 2 57 139 123 305 l118
301 -89 322 c-50 177 -90 327 -90 333 0 7 131 110 290 229 160 120 289 219
288 221 -13 13 -3334 1924 -3342 1923 -6 0 -1158 -664 -2561 -1474z"/>
<path d="M9500 9767 c0 -2 137 -126 305 -277 168 -150 305 -277 305 -282 0 -4
-9 -8 -20 -8 -28 0 -673 -60 -676 -63 -1 -1 -55 -344 -121 -762 l-118 -759
-921 -871 -921 -870 -758 -326 -758 -326 -123 -509 c-67 -280 -121 -511 -118
-513 2 -2 430 21 952 53 521 31 961 58 978 58 25 2 107 -52 467 -307 240 -170
435 -310 433 -312 -1 -1 -235 69 -519 156 l-517 158 -1057 -92 c-582 -50
-1061 -90 -1065 -88 -5 2 -8 238 -8 525 l0 520 -66 109 c-36 60 -67 109 -69
109 -2 0 -449 -197 -993 -439 l-988 -438 -942 -744 c-732 -577 -939 -746 -929
-755 6 -6 1062 -617 2344 -1357 l2333 -1346 2559 1477 2560 1477 1 2955 0
2955 -727 420 c-400 231 -749 432 -775 448 -26 15 -48 26 -48 24z"/>
</g>
</svg>
